<svg width="19" height="19" viewBox="0 0 19 19" fill="none" xmlns="http://www.w3.org/2000/svg">
<path d="M9.55495 8.66714C11.497 8.66714 13.0713 7.08565 13.0713 5.13478C13.0713 3.18391 11.497 1.60242 9.55495 1.60242C7.61291 1.60242 6.03857 3.18391 6.03857 5.13478C6.03857 7.08565 7.61291 8.66714 9.55495 8.66714Z" fill="#57626B"/>
<path d="M2.44922 15.0654C2.44922 15.0654 2.46062 10.3099 7.2913 8.66724C7.2913 8.66724 9.63211 9.93242 11.7253 8.67433C11.7253 8.67433 15.8594 9.62369 16.66 15.0654C16.66 15.0654 13.8823 18.2059 9.55175 18.2056C9.55175 18.2056 6.23845 18.7374 2.44922 15.0654Z" fill="#57626B"/>
<circle cx="9.5" cy="9.5" r="9" stroke="#57626B"/>
</svg>
