<svg width="18" height="19" viewBox="0 0 18 19" fill="none" xmlns="http://www.w3.org/2000/svg">
<path d="M16.0574 12.3508C16.0574 12.4567 16.0574 12.5398 16.0574 12.6228C16.0574 13.1127 16.0544 13.6024 16.0594 14.0923C16.0605 14.2114 16.0284 14.2555 15.9014 14.2554C12.4035 14.2523 8.90565 14.2556 5.40772 14.2513C4.34492 14.25 3.54035 13.3742 3.57625 12.2814C3.58578 11.99 3.65358 11.7148 3.78775 11.4555C4.16932 10.718 4.5483 9.97912 4.9327 9.24305C4.98084 9.15089 4.9859 9.07615 4.94294 8.97988C3.91157 6.66962 2.88243 4.3583 1.85659 2.04557C1.80692 1.93352 1.74548 1.89386 1.6232 1.89562C1.13841 1.90257 0.653498 1.89445 0.168707 1.90104C0.0388877 1.90268 -0.00159977 1.86408 4.79807e-05 1.73261C0.00687436 1.20828 0.00640358 0.683704 0.000401069 0.159367C-0.00101129 0.0337855 0.0423009 -0.000228695 0.162704 0.000359786C1.03342 0.00424376 1.90414 0.00447916 2.77497 6.69722e-06C2.88643 -0.000581784 2.94234 0.0375518 2.98565 0.138182C3.20868 0.655457 3.44584 1.16673 3.66099 1.68718C3.72831 1.85007 3.81117 1.90268 3.98689 1.90245C8.22196 1.89715 12.4571 1.89833 16.6922 1.89833C16.7466 1.89833 16.8012 1.9008 16.8554 1.89798C17.6433 1.85749 18.0595 2.69031 17.7269 3.32363C17.4925 3.76994 17.2637 4.2193 17.0319 4.66702C16.2115 6.25156 15.3928 7.83693 14.5697 9.42006C14.2136 10.1047 13.6553 10.4534 12.8713 10.451C10.7588 10.4443 8.64613 10.45 6.53349 10.4457C6.39154 10.4453 6.31269 10.484 6.24784 10.6159C6.04081 11.0372 5.81777 11.4507 5.60239 11.8679C5.57085 11.9291 5.53895 11.9922 5.52142 12.0582C5.48152 12.2083 5.57685 12.3367 5.73197 12.3491C5.78611 12.3534 5.84073 12.3507 5.89522 12.3507C9.21002 12.3507 12.5249 12.3507 15.8397 12.3507C15.9038 12.3508 15.9675 12.3508 16.0574 12.3508Z" fill="#57626B"/>
<path d="M16.0877 17.093C16.0562 18.0039 15.4813 18.7707 14.6266 18.9561C13.9327 19.1065 13.358 18.8652 12.9188 18.3181C12.2761 17.5172 12.385 16.3159 13.1508 15.6344C14.0597 14.8256 15.4838 15.2038 15.917 16.3775C16.0013 16.606 16.0321 16.8539 16.0877 17.093Z" fill="#57626B"/>
<path d="M3.55286 17.1106C3.58405 16.1594 4.19077 15.3842 5.09574 15.229C5.78944 15.11 6.34838 15.3869 6.76208 15.9409C7.38917 16.7804 7.21921 17.9901 6.39675 18.6395C5.48272 19.3612 4.11968 18.9452 3.71645 17.8128C3.63642 17.5878 3.60606 17.3451 3.55286 17.1106Z" fill="#57626B"/>
</svg>
