<svg width="21" height="14" viewBox="0 0 21 14" fill="none" xmlns="http://www.w3.org/2000/svg">
<g clip-path="url(#clip0_1446_1514)">
<path d="M6.80081 0.661716C5.94922 0.661716 5.09552 0.661716 4.24182 0.661716C5.0934 0.661716 5.94922 0.661716 6.80081 0.659668C8.46584 0.659668 10.1309 0.659668 11.7959 0.659668C10.1309 0.659668 8.46584 0.659668 6.80081 0.661716Z" fill="white"/>
<path d="M15.6979 7.57081C15.6979 7.87396 15.736 7.90878 16.0474 7.90878C17.1342 7.91083 18.2209 7.90878 19.3076 7.90878C19.4686 7.90878 19.6275 7.90878 19.8393 7.90878C19.7927 7.82685 19.78 7.78793 19.7567 7.7613C19.2144 7.16933 18.6742 6.57327 18.1213 5.98744C18.0557 5.9178 17.9264 5.87273 17.8248 5.87069C17.2253 5.86044 16.6236 5.86454 16.0241 5.86659C15.7466 5.86659 15.7 5.91165 15.6979 6.18203C15.6937 6.64496 15.6937 7.10788 15.6979 7.57081ZM13.5711 11.7207C13.569 11.8969 13.6325 11.9543 13.8104 11.9522C14.4926 11.9461 15.1747 11.9481 15.8568 11.9522C16.0114 11.9543 16.0792 11.9051 16.1195 11.7494C16.2678 11.182 16.6258 10.7703 17.1829 10.5409C18.259 10.1005 19.4368 10.6679 19.7292 11.7638C19.7673 11.9071 19.8351 11.9563 19.9812 11.9522C20.2397 11.944 20.3181 11.8744 20.3181 11.6019C20.3202 10.6822 20.3117 9.76458 20.3244 8.84488C20.3265 8.61751 20.2503 8.55401 20.0194 8.55606C18.6954 8.5663 17.3714 8.5622 16.0474 8.5622C15.3166 8.5622 15.0222 8.27544 15.02 7.55852C15.0179 7.10993 15.02 6.66339 15.02 6.21481C15.0222 5.51223 15.3293 5.21522 16.058 5.21317C16.4775 5.21317 16.8969 5.21317 17.3185 5.21317C17.3312 5.18859 17.346 5.16606 17.3608 5.14148C17.2231 4.99195 17.0982 4.83013 16.9414 4.69903C16.8461 4.61915 16.7063 4.54746 16.5855 4.54541C15.6598 4.53312 14.7341 4.54336 13.8083 4.53722C13.624 4.53517 13.5711 4.60276 13.5711 4.77277C13.5753 7.08945 13.5753 9.40612 13.5711 11.7207ZM5.18446 13.3533C5.84751 13.3492 6.3771 12.835 6.3771 12.196C6.37498 11.5651 5.8348 11.0468 5.17599 11.0427C4.52989 11.0407 3.98123 11.5733 3.98547 12.2042C3.9897 12.8412 4.52777 13.3553 5.18446 13.3533ZM0.678697 11.5569C0.691407 11.8457 0.799443 11.9481 1.10237 11.9481C1.76118 11.9522 2.41788 11.9461 3.07669 11.9522C3.24827 11.9543 3.33301 11.9071 3.38597 11.7351C3.63382 10.9076 4.32652 10.3934 5.17175 10.3914C6.02969 10.3873 6.73511 10.9035 6.97872 11.7371C7.03168 11.9133 7.12065 11.9543 7.288 11.9522C9.06743 11.9502 10.8469 11.9481 12.6242 11.9543C12.8339 11.9543 12.9101 11.901 12.9059 11.69C12.8911 11.1165 12.9017 10.543 12.9017 9.96942C12.8996 9.58023 12.8996 9.58023 12.5098 9.58023C9.6521 9.58023 6.7923 9.58023 3.93251 9.57818C3.81176 9.57818 3.68678 9.58023 3.57027 9.5536C3.40292 9.51468 3.30335 9.40612 3.31818 9.22792C3.33089 9.05381 3.44316 8.95958 3.61475 8.93705C3.71855 8.92271 3.82659 8.92886 3.93039 8.92886C6.81349 8.92886 9.69658 8.92886 12.5797 8.92886C12.8996 8.92886 12.8996 8.92886 12.8996 8.61341C12.9017 6.41554 12.9017 4.21563 12.8996 2.01776C12.8996 1.86823 12.8974 1.71665 12.8762 1.57122C12.7894 0.960812 12.4293 0.659706 11.7959 0.659706C10.1308 0.659706 8.46581 0.659706 6.80078 0.659706C5.94919 0.661754 5.09337 0.661754 4.24179 0.661754C3.39021 0.661754 2.5365 0.661754 1.6828 0.657658C1.25277 0.655609 0.956203 0.842008 0.814272 1.21071C0.723182 1.45446 0.680815 1.72894 0.680815 1.99113C0.672342 5.0452 0.67446 8.10133 0.67446 11.1554C0.67446 11.2885 0.672342 11.4237 0.678697 11.5569ZM20.5998 7.68142C20.8794 7.98048 21.0065 8.30002 21.0002 8.70354C20.9811 9.65397 20.9959 10.6044 20.9938 11.5548C20.9917 12.2779 20.6994 12.577 19.9601 12.5995C19.797 12.6036 19.7376 12.6773 19.6826 12.8064C19.2885 13.7261 18.4709 14.1521 17.4667 13.9452C16.8249 13.8142 16.4182 13.3983 16.1809 12.8289C16.1046 12.6466 16.0093 12.5995 15.8229 12.5995C12.9716 12.6036 10.1203 12.6036 7.26893 12.5995C7.09099 12.5995 6.99778 12.6384 6.93 12.8146C6.6419 13.5643 5.97885 14.0005 5.17175 14.0005C4.37313 13.9985 3.69313 13.5335 3.41351 12.7777C3.35631 12.6241 3.26099 12.5995 3.12117 12.6015C2.43059 12.6036 1.74 12.6036 1.04941 12.6015C0.45415 12.5995 0.0728439 12.2656 0.0135296 11.6921C0.000819426 11.5835 0.000819426 11.4729 0.000819426 11.3623C0.000819426 8.24471 -0.00129894 5.12714 0.000819426 2.00751C0.000819426 1.60399 0.0325949 1.20866 0.244432 0.844057C0.564305 0.299198 1.02823 0.00628538 1.68916 0.00833372C3.39444 0.0144787 5.10185 0.0103821 6.80713 0.0103821C8.46369 0.0103821 10.1224 0.0370105 11.7789 0.000140355C12.9229 -0.0244397 13.5245 0.850202 13.5499 1.59989C13.5732 2.26765 13.5774 2.93541 13.569 3.60317C13.5647 3.83668 13.6473 3.89404 13.8761 3.89199C14.787 3.88175 15.6958 3.88994 16.6067 3.88789C16.935 3.88584 17.1998 3.99645 17.4201 4.23611C18.4772 5.38933 19.5322 6.54049 20.5998 7.68142ZM19.1127 12.1939C19.1106 11.5589 18.5725 11.0386 17.9201 11.0407C17.2697 11.0448 16.7253 11.5692 16.7232 12.1939C16.7232 12.8412 17.2634 13.3594 17.9328 13.3533C18.5958 13.3471 19.1127 12.8371 19.1127 12.1939Z" fill="#57626B"/>
</g>
<defs>
<clipPath id="clip0_1446_1514">
<rect width="21" height="14" fill="white"/>
</clipPath>
</defs>
</svg>
