<svg width="19" height="19" viewBox="0 0 19 19" fill="none" xmlns="http://www.w3.org/2000/svg">
<circle cx="9.5" cy="9.5" r="9.5" fill="#57626B"/>
<path d="M8.60511 11.1364V11.0767C8.61174 10.4437 8.67803 9.93987 8.80398 9.56534C8.92992 9.19081 9.1089 8.88755 9.34091 8.65554C9.57292 8.42353 9.85133 8.20975 10.1761 8.0142C10.3717 7.89489 10.5473 7.75402 10.7031 7.59162C10.8589 7.4259 10.9815 7.23532 11.071 7.01989C11.1638 6.80445 11.2102 6.56581 11.2102 6.30398C11.2102 5.97917 11.134 5.69744 10.9815 5.45881C10.8291 5.22017 10.6252 5.03622 10.37 4.90696C10.1148 4.7777 9.83144 4.71307 9.51989 4.71307C9.24811 4.71307 8.98627 4.76941 8.73438 4.8821C8.48248 4.99479 8.27202 5.17211 8.10298 5.41406C7.93395 5.65601 7.83617 5.97254 7.80966 6.36364H6.55682C6.58333 5.80019 6.72917 5.31794 6.99432 4.9169C7.26278 4.51586 7.61577 4.20928 8.05327 3.99716C8.49408 3.78504 8.98295 3.67898 9.51989 3.67898C10.1032 3.67898 10.6103 3.79498 11.0412 4.02699C11.4754 4.259 11.8101 4.57718 12.0455 4.98153C12.2841 5.38589 12.4034 5.84659 12.4034 6.36364C12.4034 6.72822 12.3471 7.058 12.2344 7.35298C12.125 7.64796 11.9659 7.91146 11.7571 8.14347C11.5516 8.37547 11.303 8.58097 11.0114 8.75994C10.7197 8.94223 10.486 9.13447 10.3104 9.33665C10.1347 9.53551 10.0071 9.77249 9.92756 10.0476C9.84801 10.3227 9.80492 10.6657 9.7983 11.0767V11.1364H8.60511ZM9.24148 14.0795C8.99621 14.0795 8.78575 13.9917 8.61009 13.8161C8.43442 13.6404 8.34659 13.4299 8.34659 13.1847C8.34659 12.9394 8.43442 12.7289 8.61009 12.5533C8.78575 12.3776 8.99621 12.2898 9.24148 12.2898C9.48674 12.2898 9.69721 12.3776 9.87287 12.5533C10.0485 12.7289 10.1364 12.9394 10.1364 13.1847C10.1364 13.3471 10.0949 13.4962 10.0121 13.6321C9.93253 13.768 9.82481 13.8774 9.68892 13.9602C9.55634 14.0398 9.4072 14.0795 9.24148 14.0795Z" fill="white"/>
</svg>
