<svg width="19" height="19" viewBox="0 0 19 19" fill="none" xmlns="http://www.w3.org/2000/svg">
<path d="M7.76294 14.2838C11.383 14.2712 14.2812 11.3875 14.2718 7.80801C14.2634 4.2275 11.3788 1.31756 7.82599 1.30601C4.23427 1.29447 1.26253 4.2275 1.28145 7.76708C1.30141 11.3875 4.19539 14.2974 7.76294 14.2838ZM18.5497 17.0059C19.1045 17.5642 19.1476 18.1885 18.6737 18.6671C18.1987 19.1456 17.5651 19.1078 17.0113 18.5569C15.993 17.5463 14.9853 16.5263 13.9628 15.5199C13.6549 15.2167 13.4647 14.8767 13.5551 14.4464C13.6434 14.0267 13.2745 13.9154 13.0728 13.7192C12.8815 13.5324 12.7502 13.822 12.6178 13.9207C10.2597 15.6679 7.68098 16.1045 4.94988 15.0383C2.13367 13.9385 0.466008 11.8156 0.0708972 8.81647C-0.569056 3.95676 3.20446 -0.141091 8.11392 0.00372473C12.2205 0.124404 15.4991 3.53491 15.5748 7.76394C15.5758 9.58987 15.021 11.2217 13.884 12.6572C13.7915 12.7748 13.5288 12.8965 13.7043 13.0759C13.8945 13.2722 14.0091 13.6374 14.3768 13.567C14.8655 13.4726 15.2165 13.6699 15.5433 13.9994C16.5415 15.0068 17.5493 16.0016 18.5497 17.0059Z" fill="#57626B"/>
</svg>
