<svg width="13" height="12" viewBox="0 0 13 12" fill="none" xmlns="http://www.w3.org/2000/svg">
<path d="M6.01452 0.000216333C7.6201 0.000216333 9.22559 -0.000446166 10.8312 0.000547546C11.5957 0.0010444 12.0308 0.431073 12.0152 1.20219C11.9505 4.42621 12.0005 7.65047 11.9854 10.8746C11.9836 11.2562 11.8713 11.5711 11.5511 11.7951C11.35 11.9358 11.1238 11.9956 10.8819 11.9961C10.0708 11.9977 9.25949 11.9913 8.44839 11.9999C8.22863 12.0023 8.1543 11.9263 8.15554 11.7047C8.16314 10.3083 8.16414 8.91182 8.15504 7.51541C8.15339 7.26781 8.24062 7.19187 8.4794 7.19974C8.90983 7.2139 9.34118 7.19999 9.77211 7.20206C9.98683 7.20305 10.0969 7.13026 10.0856 6.88763C10.0682 6.51607 10.0712 6.14268 10.0853 5.77087C10.0936 5.55275 10.0041 5.49445 9.80221 5.49917C9.35457 5.5096 8.9062 5.49205 8.45881 5.50687C8.22028 5.51474 8.14553 5.42141 8.15769 5.19468C8.17166 4.93308 8.16844 4.67116 8.20143 4.40981C8.25872 3.95676 8.53347 3.65037 8.98094 3.56276C9.25602 3.50885 9.5344 3.49079 9.81345 3.51183C10.0061 3.5264 10.0913 3.45949 10.086 3.25495C10.0756 2.85747 10.0804 2.45949 10.0843 2.06175C10.0857 1.91982 10.0404 1.84537 9.8853 1.83262C9.20525 1.77664 8.53521 1.8231 7.88021 2.0196C7.10971 2.25072 6.73393 2.83909 6.51143 3.56093C6.35525 4.06773 6.3273 4.59208 6.31019 5.11651C6.2977 5.50099 6.30531 5.50132 5.91018 5.5019C5.69893 5.50223 5.48743 5.5082 5.27651 5.50058C5.10809 5.49445 5.0288 5.55167 5.03219 5.73277C5.04005 6.14732 5.04029 6.56227 5.03211 6.97682C5.02847 7.16132 5.11355 7.2096 5.27916 7.20545C5.55779 7.1985 5.83692 7.20852 6.11564 7.2033C6.26835 7.20049 6.31804 7.25961 6.31722 7.41488C6.30994 8.83663 6.30514 10.2585 6.31267 11.6802C6.31399 11.9272 6.22908 12.0006 5.99038 11.9995C4.36794 11.9924 2.74549 11.9997 1.12305 11.9947C0.440684 11.9927 0.00586646 11.5638 0.00470893 10.8822C-0.000665319 7.61536 -0.00124408 4.34845 0.00198046 1.08162C0.00264191 0.435876 0.445893 0.00468804 1.09642 0.0033631C2.73574 -0.000114896 4.37513 0.00220377 6.01444 0.00220377C6.01452 0.00162411 6.01452 0.000878807 6.01452 0.000216333Z" fill="#353A49"/>
</svg>
