<svg width="12" height="12" viewBox="0 0 12 12" fill="none" xmlns="http://www.w3.org/2000/svg">
<path d="M11.9268 3.38491C11.9261 5.12855 11.9292 6.8714 11.9261 8.61504C11.9229 10.2955 10.8441 11.6184 9.20648 11.9488C8.98866 11.9927 8.76369 12.0007 8.53951 11.9999C6.82556 11.9991 5.11162 11.9999 3.39768 11.9991C1.70122 11.9983 0.407817 10.9466 0.0548526 9.2765C0.00715472 9.05095 0 8.8182 0 8.58704C0.00158993 7.72482 0.000794982 6.8626 0.000794982 6.00037C0.000794982 5.13815 1.82131e-08 4.27593 0.000794982 3.4129C0.00238491 1.71005 1.05571 0.403118 2.71162 0.0535891C2.93024 0.00799837 3.15442 0 3.3786 0C5.0989 0.000799836 6.8192 -0.000799818 8.53951 0.000799855C10.228 0.00239953 11.5365 1.07258 11.8752 2.73224C11.9189 2.9458 11.9268 3.16575 11.9268 3.38491ZM10.8703 8.58465C10.8735 6.8602 10.8727 5.13655 10.8695 3.4121C10.8688 3.13136 10.8433 2.85302 10.7455 2.58427C10.3942 1.61887 9.59045 1.06458 8.52361 1.06298C6.81602 1.06058 5.10844 1.06138 3.40086 1.06378C3.20848 1.06378 3.0153 1.07178 2.82769 1.11657C1.73779 1.37812 1.06128 2.24114 1.0573 3.39691C1.05174 5.13335 1.05492 6.8698 1.0573 8.60704C1.0573 9.03735 1.13918 9.45007 1.36734 9.82199C1.83001 10.5762 2.51209 10.9346 3.38575 10.937C4.24193 10.9394 5.0989 10.9378 5.95587 10.9378C6.80648 10.9378 7.6571 10.9394 8.50771 10.937C8.70645 10.9362 8.90598 10.9298 9.09996 10.8834C10.1962 10.6202 10.868 9.75161 10.8703 8.58465Z" fill="#353A49"/>
<path d="M9.16036 2.01322C9.58964 2.00922 9.94976 2.36674 9.94419 2.79146C9.93942 3.21217 9.58884 3.5617 9.17069 3.5641C8.743 3.5665 8.38686 3.21057 8.39004 2.78266C8.39322 2.35715 8.73426 2.01642 9.16036 2.01322Z" fill="#353A49"/>
<path d="M5.96067 2.91065C7.65156 2.90665 9.03559 4.29837 9.034 6.00122C9.0332 7.70647 7.64758 9.09659 5.95749 9.08939C4.26024 9.08219 2.88097 7.68728 2.8929 5.98922C2.90562 4.28557 4.27057 2.91465 5.96067 2.91065ZM7.97829 6.00522C7.97908 4.89025 7.0768 3.97604 5.97339 3.97364C4.85646 3.97124 3.94861 4.88225 3.94941 6.00442C3.951 7.11699 4.85726 8.02641 5.96385 8.02641C7.06964 8.02641 7.9767 7.11619 7.97829 6.00522Z" fill="#353A49"/>
</svg>
