<svg width="11" height="12" viewBox="0 0 11 12" fill="none" xmlns="http://www.w3.org/2000/svg">
<path d="M4.39433 6.66679C4.0062 6.68891 3.65157 6.65911 3.32285 6.73778C2.49763 6.93516 1.98374 7.77061 2.1115 8.63006C2.23221 9.44202 2.98655 10.068 3.81388 10.0493C4.54947 10.0328 5.05409 9.66731 5.36996 9.02272C5.42241 8.91581 5.45075 8.78616 5.4519 8.66661C5.47034 6.71261 5.48413 4.75861 5.4954 2.80461C5.50046 1.93599 5.49761 1.06737 5.49909 0.198749C5.49919 0.138293 5.50604 0.0779409 5.51078 0C6.16085 0 6.80091 0 7.46204 0C7.62035 1.82413 8.69456 2.74742 10.4636 2.9666C10.4636 3.63626 10.4636 4.29202 10.4636 4.97253C9.40225 4.95799 8.45379 4.63591 7.55915 4.03882C7.55389 4.13898 7.54736 4.20428 7.54736 4.26948C7.54662 5.59563 7.54683 6.92189 7.54651 8.24805C7.5462 10.164 6.09449 11.7563 4.14671 11.9772C2.28434 12.1887 0.502127 10.906 0.0907254 9.05832C-0.385136 6.92084 1.06235 4.81222 3.22827 4.51057C3.56163 4.46412 3.90667 4.49509 4.24593 4.50509C4.29659 4.50657 4.38727 4.58904 4.3879 4.63506C4.39707 5.33063 4.39433 6.02652 4.39433 6.66679Z" fill="#353A49"/>
</svg>
