<svg width="13" height="12" viewBox="0 0 13 12" fill="none" xmlns="http://www.w3.org/2000/svg">
<path d="M12.0421 12C8.02732 12 4.01328 12 0 12C0 7.99925 0 3.99925 0 0C4.01479 0 8.02883 0 12.0421 0C12.0421 4.00075 12.0421 8.00075 12.0421 12ZM5.3955 6.90226C5.40626 6.91416 5.41326 6.92081 5.41896 6.92832C6.20517 7.97941 6.99192 9.03017 7.77619 10.0826C7.81699 10.1374 7.85735 10.1593 7.92581 10.1591C8.72096 10.1568 9.51621 10.1576 10.3114 10.1576C10.3417 10.1576 10.3721 10.1576 10.427 10.1576C9.21621 8.5508 8.02032 6.96361 6.82271 5.37417C7.92086 4.19844 9.01245 3.0299 10.1218 1.84227C9.87508 1.84227 9.66066 1.84012 9.44646 1.84463C9.41416 1.84527 9.37574 1.87048 9.35184 1.89536C9.22332 2.02923 9.0991 2.16717 8.9723 2.30265C8.26165 3.06176 7.55079 3.82065 6.83972 4.57944C6.72874 4.69786 6.61679 4.81521 6.50011 4.93846C6.47643 4.9096 6.45791 4.88869 6.44123 4.86648C5.70292 3.88651 4.96472 2.90644 4.22673 1.92604C4.18992 1.87713 4.15698 1.83937 4.08196 1.83969C3.29317 1.84345 2.50437 1.84195 1.71569 1.84227C1.68921 1.84227 1.66273 1.84645 1.62118 1.84988C2.77649 3.39503 3.92168 4.92644 5.07182 6.46462C3.92233 7.69237 2.77703 8.91561 1.61429 10.1576C1.86886 10.1576 2.09265 10.1591 2.31643 10.1557C2.34334 10.1553 2.37596 10.1338 2.39576 10.1127C2.85517 9.62248 3.31297 9.13068 3.77163 8.63973C4.31091 8.06211 4.85062 7.48513 5.3955 6.90226Z" fill="#353A49"/>
<path d="M5.39553 6.90227C4.85076 7.48504 4.31094 8.06212 3.77166 8.63953C3.31311 9.13058 2.85531 9.62228 2.39579 10.1125C2.37599 10.1336 2.34348 10.1551 2.31646 10.1555C2.09278 10.1589 1.869 10.1574 1.61432 10.1574C2.77706 8.91552 3.92235 7.69217 5.07185 6.46442C3.92171 4.92646 2.77652 3.39504 1.6211 1.84979C1.66276 1.84636 1.68913 1.84218 1.71561 1.84218C2.5044 1.84185 3.29319 1.84336 4.08188 1.8396C4.15701 1.83928 4.18984 1.87704 4.22666 1.92595C4.96453 2.90624 5.70284 3.88632 6.44115 4.86639C6.45794 4.88859 6.47646 4.90962 6.50003 4.93837C6.61671 4.81512 6.72877 4.69777 6.83964 4.57935C7.55071 3.82056 8.26157 3.06167 8.97222 2.30256C9.09902 2.16708 9.22324 2.02914 9.35176 1.89527C9.37566 1.87039 9.41419 1.84518 9.44638 1.84454C9.66058 1.84003 9.87489 1.84218 10.1217 1.84218C9.01248 3.02992 7.92089 4.19845 6.82274 5.37418C8.02035 6.96373 9.21624 8.55082 10.427 10.1576C10.3721 10.1576 10.3417 10.1576 10.3114 10.1576C9.51623 10.1576 8.72098 10.1568 7.92584 10.1591C7.85738 10.1594 7.81702 10.1375 7.77622 10.0827C6.99195 9.03018 6.2052 7.97942 5.41899 6.92834C5.41329 6.92083 5.40629 6.91418 5.39553 6.90227ZM2.73152 2.39502C2.79589 2.48061 2.84541 2.5468 2.89525 2.61276C3.90384 3.9481 4.91254 5.28344 5.92125 6.61866C6.64502 7.57675 7.36934 8.53441 8.09172 9.49357C8.13219 9.54731 8.17331 9.56962 8.2422 9.56876C8.5691 9.56479 8.89612 9.56694 9.22313 9.56694C9.25187 9.56694 9.28072 9.56694 9.3255 9.56694C9.30203 9.53304 9.29342 9.51974 9.28395 9.50719C8.43218 8.37383 7.58031 7.24058 6.72834 6.10733C5.81102 4.8872 4.89403 3.66685 3.97478 2.44822C3.95422 2.42098 3.90911 2.39866 3.87467 2.39738C3.72419 2.39191 3.57338 2.39502 3.42279 2.39502C3.19922 2.39502 2.97576 2.39502 2.73152 2.39502Z" fill="white"/>
<path d="M2.73151 2.39505C2.97574 2.39505 3.19921 2.39505 3.42267 2.39505C3.57337 2.39505 3.72406 2.39194 3.87454 2.39741C3.90899 2.39869 3.95409 2.421 3.97465 2.44825C4.8939 3.66688 5.811 4.88723 6.72821 6.10736C7.58008 7.24061 8.43195 8.37386 9.28382 9.50722C9.29329 9.51977 9.3018 9.53307 9.32537 9.56696C9.28059 9.56696 9.25174 9.56696 9.223 9.56696C8.89599 9.56696 8.56909 9.56482 8.24207 9.56879C8.17329 9.56965 8.13206 9.54733 8.09159 9.4936C7.36921 8.53444 6.6449 7.57678 5.92112 6.61869C4.91242 5.28346 3.90382 3.94813 2.89512 2.61279C2.84539 2.54672 2.79588 2.48054 2.73151 2.39505Z" fill="#353A49"/>
</svg>
