<svg width="17" height="12" viewBox="0 0 17 12" fill="none" xmlns="http://www.w3.org/2000/svg">
<path d="M16.6964 2.15587C16.8483 3.65666 16.9482 5.16019 16.8949 6.66762C16.8557 7.76827 16.7708 8.86819 16.68 9.96621C16.6127 10.7798 15.9004 11.5006 15.0926 11.5946C12.8836 11.8508 10.668 12.0026 8.44315 12C6.23284 12.0008 4.03219 11.8482 1.83731 11.598C1.02605 11.5054 0.314129 10.7832 0.226544 9.96347C0.0548394 8.35364 -0.0433524 6.7395 0.0187132 5.12125C0.058305 4.08669 0.139379 3.05308 0.232215 2.02115C0.305727 1.20498 1.025 0.494256 1.82933 0.402062C3.93641 0.160524 6.04937 0.00739254 8.17126 0.000341116C10.2701 -0.00671031 12.3638 0.0951669 14.4496 0.342703C14.6895 0.37133 14.9346 0.372277 15.1706 0.419427C16.0286 0.591924 16.6079 1.27928 16.6964 2.15587ZM7.05754 8.81525C8.47676 7.8672 9.86121 6.9421 11.2717 5.99973C9.85512 5.05347 8.47151 4.12963 7.05754 3.18558C7.05754 5.08084 7.05754 6.92263 7.05754 8.81525Z" fill="#353A49"/>
</svg>
